<svg fill="none" height="28" viewBox="0 0 27 28" width="27" xmlns="http://www.w3.org/2000/svg"><g fill="#fff"><path d="m10.2897 22.0133c.3944.0053.7784.127 1.1038.35.3253.2229.5775.5371.7248.9029.1473.3659.1831.7672.103 1.1534-.0802.3862-.2727.74-.5535 1.0171-.2807.277-.6371.4649-1.0243.5399s-.78798.0339-1.15188-.1182-.67469-.4085-.8933-.7368-.33526-.7139-.3353-1.1083c-.00002-.2649.05258-.5272.15475-.7716.10218-.2444.25188-.466.44044-.6521.18855-.1861.41218-.3328.65792-.4318.24574-.0989.50867-.148.77357-.1445zm0-1.3333c-.66039-.0053-1.30746.1857-1.85912.5487-.55166.3631-.98305.8818-1.23944 1.4904-.25638.6086-.32621 1.2797-.20062 1.928.12559.6484.44094 1.2448.90603 1.7136.4651.4689 1.05898.789 1.7063.9198.64735.1308 1.31895.0664 1.92955-.1851s1.1328-.6787 1.5003-1.2274c.3674-.5488.5636-1.1943.5637-1.8547 0-.8794-.3475-1.7233-.9669-2.3476-.6194-.6244-1.4604-.9787-2.3398-.9857z" opacity=".64"/><path d="m20.969 22.0133c.3938.0079.7765.1319 1.1001.3564s.5737.5395.7189.9056c.1453.366.1792.7669.0976 1.1521-.0816.3853-.2752.738-.5564 1.0137s-.6376.4622-1.0245.5362c-.3868.074-.7869.0321-1.15-.1203-.3631-.1525-.6731-.4088-.8912-.7368-.218-.328-.3344-.713-.3345-1.1069.0035-.5293.2154-1.036.5897-1.4103s.881-.5862 1.4103-.5897zm-.04-1.3333c-.6592 0-1.3037.1955-1.8519.5618-.5481.3662-.9754.8868-1.2277 1.4959s-.3183 1.2793-.1896 1.9259c.1286.6466.446 1.2406.9122 1.7067.4662.4662 1.0601.7837 1.7067.9123s1.3169.0626 1.926-.1897c.609-.2523 1.1296-.6795 1.4959-1.2277.3663-.5481.5618-1.1926.5618-1.8519 0-.8771-.3457-1.719-.9622-2.343s-1.4541-.9798-2.3312-.9903z" opacity=".64"/><path d="m21.596 20.0267h-9.0533c-1.3649.0055-2.6907-.4555-3.75768-1.3067-1.06699-.8511-1.8111-2.0413-2.10899-3.3733l-2.66667-11.76003c-.09605-.44017-.3379-.83502-.68637-1.12058-.34848-.28555-.78316-.44509-1.23363-.45275h-1.159998c-.175742-.00341-.343336-.07475-.467628-.19904s-.195625-.29189-.199039-.46763c0-.17681.070238-.34638.195263-.471402.125024-.125025.294593-.195263.471404-.195263h1.159998c.76749-.002133 1.51181.262773 2.10538.749305.59357.48653.99941 1.16439 1.14796 1.91736l2.66666 11.76003c.22845 1.0382.80549 1.9669 1.63512 2.6316.82962.6646 1.86182 1.0252 2.92492 1.0217h9.0266c.1768 0 .3464.0702.4714.1953.1251.125.1953.2946.1953.4714-.0166.165-.0941.3179-.2174.4288-.1232.111-.2834.172-.4493.1712z" opacity=".8"/><path d="m26.9298 6.24001c-.0698 1.19469-.5395 2.33117-1.3333 3.22667v1.20002c0 1.2377-.4917 2.4246-1.3669 3.2998-.8751.8752-2.0621 1.3668-3.2998 1.3668h-11.33332c-.45386.0015-.89454-.1525-1.24871-.4363s-.60048-.6804-.69795-1.1237l-1.97334-9.09329h10.73332c.1077-.46936.2876-.91916.5333-1.33333h-12.10662c-.09946.00197-.19728.02573-.28656.06962s-.16784.10684-.23014.1844c-.0623.07755-.10683.16784-.13043.26448-.02361.09664-.02573.19729-.0062.29483l2.21333 9.85329c.14672.7441.54473 1.4151 1.12732 1.9006.5826.4855 1.31438.756 2.07268.7661h11.26662c.7942.0071 1.5819-.1433 2.3176-.4423.7358-.2991 1.405-.7409 1.969-1.3.5641-.5591 1.0118-1.2244 1.3173-1.9574.3056-.7331.4628-1.5194.4628-2.3136v-4.00002c.0109-.14202.0109-.28465 0-.42667z"/><path d="m21.596 11.3467c-1.0548 0-2.0859-.3128-2.963-.8989-.8771-.586-1.5607-1.41895-1.9643-2.39349-.4037-.97454-.5093-2.0469-.3035-3.08146.2058-1.03457.7137-1.98488 1.4596-2.73076s1.6962-1.253829 2.7307-1.459616c1.0346-.205788 2.107-.10017 3.0815.303496.9745.40367 1.8075 1.08725 2.3935 1.96432.5861.87706.8989 1.90821.8989 2.96304 0 1.41449-.5619 2.77104-1.5621 3.77123-1.0002 1.00024-2.3568 1.56214-3.7713 1.56214zm0-9.33337c-.7911 0-1.5645.23459-2.2222.67412-.6578.43953-1.1705 1.06424-1.4733 1.79514-.3027.73091-.382 1.53518-.2276 2.3111.1543.77592.5353 1.48866 1.0947 2.04807s1.2721.94037 2.0481 1.09471c.7759.15433 1.5802.07513 2.3111-.22762s1.3556-.81544 1.7951-1.47324.6741-1.43116.6741-2.22228c0-1.06087-.4214-2.07828-1.1715-2.82843-.7502-.75014-1.7676-1.17157-2.8285-1.17157z"/><path d="m23.5697 5.33335h-1.3333v-1.33334c-.0033-.16997-.0714-.33227-.1904-.45371-.1189-.12144-.2798-.19285-.4496-.19962-.1769 0-.3464.07024-.4715.19526-.125.12503-.1952.2946-.1952.47141v1.33333h-1.3333c-.1769 0-.3464.07024-.4715.19526-.125.12503-.1952.2946-.1952.47141s.0702.34638.1952.4714c.1251.12502.2946.19526.4715.19526h1.3333v1.33334c0 .17681.0702.34638.1952.4714.1251.12502.2946.19526.4715.19526.1768 0 .3463-.07024.4714-.19526.125-.12502.1952-.29459.1952-.4714v-1.33334h1.3334c.1768 0 .3463-.07024.4714-.19526.125-.12502.1952-.29459.1952-.4714s-.0702-.34638-.1952-.47141c-.1251-.12502-.2946-.19526-.4714-.19526z"/></g></svg>