<svg fill="none" height="26" viewBox="0 0 26 26" width="26" xmlns="http://www.w3.org/2000/svg"><g fill="#542ded"><path d="m9.8246 20.7143c-.50858 0-1.00574.1508-1.42861.4334-.42286.2825-.75245.6841-.94708 1.154-.19462.4698-.24554.9869-.14633 1.4857.09922.4988.34413.957.70375 1.3166s.8178.6045 1.31661.7037c.49881.0993 1.01586.0483 1.48566-.1463.4699-.1946.8715-.5242 1.1541-.9471.2825-.4228.4333-.92.4333-1.4286 0-.682-.2709-1.336-.7531-1.8183-.4823-.4822-1.1363-.7531-1.8183-.7531z" opacity=".64"/><path d="m20.1232 20.7143c-.5086 0-1.0058.1508-1.4286.4334-.4229.2825-.7525.6841-.9471 1.154-.1946.4698-.2456.9869-.1463 1.4857.0992.4988.3441.957.7037 1.3166s.8178.6045 1.3166.7037c.4988.0993 1.0159.0483 1.4857-.1463.4699-.1946.8715-.5242 1.1541-.9471.2825-.4228.4333-.92.4333-1.4286 0-.682-.2709-1.336-.7531-1.8183-.4823-.4822-1.1363-.7531-1.8183-.7531z" opacity=".64"/><path d="m22.643 2.71428h-16.79147c-.15881.0055-.30996.06963-.42428.18l2.57142 11.21142c0 .09 0 .1672.09.2572.29975.364.6768.6568 1.1038.8569.42699.2002.89323.3027 1.36473.3002h9.5658c1.5178-.0168 2.9686-.6281 4.0407-1.7026s1.6802-2.5267 1.6935-4.04454v-3.85715c-.0034-.85025-.3435-1.66452-.9459-2.26453-.6025-.60002-1.4181-.9369-2.2683-.9369z"/><path d="m20.8945 19.1586h-8.7429c-1.3563.0057-2.67368-.4529-3.73324-1.2996s-1.79744-2.0305-2.09101-3.3547l-2.57143-11.35286c-.08615-.38132-.29761-.72276-.60058-.9698-.30298-.24704-.67999-.38543-1.07084-.39306h-1.118576c-.218236 0-.427533-.08669-.581848-.24101-.154316-.15432-.24101-.36361-.24101-.581848 0-.218236.086694-.427533.24101-.581848.154315-.154316.363612-.24101.581848-.24101h1.118576c.77223-.003671 1.52246.257095 2.12594.738941.60347.481845 1.02384 1.155735 1.1912 1.909635l2.57143 11.35286c.21389.958.74857 1.8142 1.51549 2.4268.76694.6126 1.72014.9448 2.70164.9418h8.7429c.2182 0 .4275.0867.5818.241s.241.3636.241.5818c0 .2183-.0867.4276-.241.5819s-.3636.241-.5818.241z" opacity=".8"/></g></svg>