<svg xmlns="http://www.w3.org/2000/svg" version="1.1" xmlns:xlink="http://www.w3.org/1999/xlink" xmlns:svgjs="http://svgjs.dev/svgjs" viewBox="0 0 1422 800"><defs><filter id="uuunion-blur" x="100%" y="100%" width="100%" height="100%" color-interpolation-filters="sRGB">
        <feGaussianBlur in="SourceGraphic" stdDeviation="7.5 6.5" result="blur"></feGaussianBlur>
        <feDropShadow stdDeviation="12.307692307692308" in="blur" dx="10" dy="10" flood-color="#ba61fa" flood-opacity="0" x="0%" y="0%" width="100%" height="100%"></feDropShadow>
      </filter><filter id="uuunion-blur2" x="-100%" y="-100%" width="400%" height="400%" color-interpolation-filters="sRGB">
        <feGaussianBlur in="SourceGraphic" stdDeviation="7.5 6.5" result="blur"></feGaussianBlur>
        <feDropShadow stdDeviation="12.307692307692308" in="blur" dx="-10" dy="-10" flood-color="#ba61fa" flood-opacity="0" x="0%" y="0%" width="100%" height="100%"></feDropShadow>
      </filter><linearGradient gradientTransform="rotate(56, 0.5, 0.5)" x1="50%" y1="0%" x2="50%" y2="100%" id="uuunion-grad"><stop stop-color="#f89c5e" offset="10%"></stop><stop stop-color="#ba61fa" offset="90%"></stop></linearGradient><linearGradient gradientTransform="rotate(103, 0.5, 0.5)" x1="50%" y1="0%" x2="50%" y2="100%" id="uuunion-grad2"><stop stop-color="#f89c5e" offset="25%"></stop><stop stop-color="#ba61fa" offset="100%"></stop></linearGradient><linearGradient gradientTransform="rotate(300, 0.5, 0.5)" x1="50%" y1="0%" x2="50%" y2="100%" id="uuunion-grad3"><stop stop-color="#f89c5e" offset="0%"></stop><stop stop-color="#ba61fa" offset="75%"></stop></linearGradient></defs><path d="M-142.59 -87.06Q-129.24 -85.46 -115.9 -83.58 -102.56 -81.52 -89.21 -79.38 -75.87 -77.27 -62.52 -75.3 -49.18 -73.57 -35.83 -72.17 -22.49 -71.16 -9.14 -70.6 4.19 -70.52 17.54 -70.92 30.88 -71.79 44.23 -73.07 57.57 -74.7 70.92 -76.6 84.26 -78.67 97.61 -80.81 110.95 -82.91 124.29 -84.86 137.64 -86.57 150.98 -87.94 164.33 -88.9 177.67 -89.42 191.02 -89.45 204.36 -89 217.71 -88.1 231.05 -86.78 244.4 -85.12 257.74 -83.2 271.09 -81.11 284.43 -78.97 297.78 -76.88 311.12 -74.95 324.47 -73.27 337.81 -71.94 351.16 -71.02 364.5 -70.55 377.85 -70.56 391.19 -71.05 404.53 -72 417.88 -73.35 431.22 -75.05 444.57 -76.99 457.91 -79.08 471.26 -81.22 484.6 -83.3 497.95 -85.21 511.29 -86.86 524.64 -88.16 537.98 -89.04 551.33 -89.46 564.67 -89.4 578.02 -88.86 591.36 -87.88 604.71 -86.49 618.05 -84.77 631.4 -82.81 644.74 -80.7 658.09 -78.56 671.43 -76.49 684.77 -74.6 698.12 -72.99 711.46 -71.73 724.81 -70.89 738.15 -70.51 751.5 -70.62 764.84 -71.2 778.19 -72.23 791.53 -73.66 804.88 -75.4 818.22 -77.38 831.57 -79.49 844.91 -81.63 858.26 -83.69 871.6 -85.55 884.95 -87.14 898.29 -88.36 911.64 -89.16 924.98 -89.49 938.33 -89.33 951.67 -88.71 965.02 -87.64 978.36 -86.18 991.71 -84.41 1005.05 -82.41 1018.39 -80.29 1031.74 -78.15 1045.08 -76.11 1058.43 -74.27 1071.77 -72.72 1085.12 -71.53 1098.46 -70.78 1111.81 -70.5 1125.15 -70.7 1138.5 -71.37 1151.84 -72.48 1165.19 -73.97 1178.53 -75.77 1191.88 -77.78 1205.22 -79.91 1218.57 -82.04 1231.91 -84.06 1245.26 -85.88 1258.6 -87.4 1271.95 -88.55 1285.29 -89.26 1298.64 -89.49 1311.98 -89.25 1325.33 -88.53 1338.67 -87.38 1352.02 -85.86 1365.36 -84.04 1378.71 -82.01 1392.05 -79.88 1405.4 -77.75 1418.74 -75.74 1432.08 -73.95 1445.43 -72.46 1458.77 -71.35 1472.12 -70.69 1485.46 -70.5 1498.81 -70.79 1512.15 -71.55 1525.5 -72.74 1538.84 -74.29 1552.28 -69.65 1543.34 -48.15 1541.6 -33.13 1547.75 -18.11 1559.64 -3.1 1573.12 11.91 1583.49 26.93 1587.12 41.95 1582.73 56.97 1571.88 71.98 1558.34 87 1546.84 102.02 1541.41 117.04 1543.94 132.05 1553.54 147.07 1566.87 162.09 1579.26 177.11 1586.39 192.13 1585.77 207.14 1577.61 222.16 1564.76 237.18 1551.72 252.2 1543.03 267.22 1541.74 282.23 1548.29 297.25 1560.4 312.27 1573.83 327.29 1583.9 342.3 1587.08 357.32 1582.27 372.34 1571.15 387.36 1557.59 402.38 1546.35 417.39 1541.34 432.41 1544.31 447.43 1554.23 462.45 1567.63 477.47 1579.83 492.48 1586.57 507.5 1585.49 522.52 1576.97 537.54 1563.99 552.55 1551.08 567.57 1542.75 582.59 1541.91 597.61 1548.86 612.63 1561.16 627.64 1574.52 642.66 1584.28 657.68 1587.02 672.7 1581.79 687.72 1570.41 702.73 1556.86 717.75 1545.87 732.77 1541.29 747.79 1544.7 762.8 1554.93 777.82 1568.39 792.84 1580.39 807.86 1586.73 822.88 1585.2 837.89 1576.33 852.91 1563.22 867.93 1550.46 882.95 1537.26 886.28 1524.07 889.3 1510.88 891.84 1497.69 893.78 1484.5 895.02 1471.31 895.49 1458.11 895.18 1444.92 894.09 1431.73 892.29 1418.54 889.87 1405.35 886.94 1392.16 883.66 1378.97 880.19 1365.77 876.71 1352.58 873.4 1339.39 870.43 1326.2 867.94 1313.01 866.06 1299.82 864.89 1286.63 864.5 1273.43 864.88 1260.24 866.04 1247.05 867.91 1233.86 870.39 1220.67 873.36 1207.48 876.66 1194.29 880.14 1181.09 883.61 1167.9 886.89 1154.71 889.83 1141.52 892.26 1128.33 894.07 1115.14 895.17 1101.95 895.49 1088.75 895.03 1075.56 893.8 1062.37 891.87 1049.18 889.34 1035.99 886.33 1022.8 883 1009.61 879.52 996.41 876.06 983.22 872.8 970.03 869.91 956.84 867.53 943.65 865.78 930.46 864.76 917.27 864.51 904.07 865.05 890.88 866.35 877.69 868.34 864.5 870.92 851.31 873.97 838.12 877.32 824.93 880.81 811.74 884.26 798.54 887.49 785.35 890.34 772.16 892.66 758.97 894.34 745.78 895.29 732.59 895.46 719.4 894.85 706.2 893.48 693.01 891.43 679.82 888.79 666.63 885.71 653.44 882.33 640.25 878.84 627.06 875.41 613.86 872.21 600.67 869.4 587.48 867.14 574.29 865.52 561.1 864.65 547.91 864.55 534.72 865.24 521.52 866.68 508.33 868.79 495.14 871.48 481.95 874.6 468.76 877.99 455.57 881.48 442.38 884.9 429.19 888.07 415.99 890.83 402.8 893.04 389.61 894.58 376.42 895.39 363.23 895.41 350.04 894.64 336.85 893.14 323.65 890.96 310.46 888.23 297.27 885.08 284.08 881.67 270.89 878.17 257.7 874.77 244.51 871.63 231.31 868.92 218.12 866.77 204.93 865.3 191.74 864.57 178.55 864.62 165.36 865.46 152.17 867.04 138.98 869.27 125.78 872.05 112.59 875.23 99.4 878.66 86.21 882.15 73.02 885.54 59.83 888.64 46.64 891.3 33.44 893.39 20.25 894.8 7.06 895.45 -6.12 895.32 -19.31 894.41 -32.5 892.77 -45.69 890.47 -58.88 887.65 -72.08 884.44 -85.27 881 -98.46 877.5 -111.65 874.14 -124.84 871.07 -138.03 868.46 -141.89 853.53 -145.85 838.6 -148.53 823.67 -149 808.74 -147.08 793.81 -143.45 778.88 -139.38 763.95 -136.29 749.02 -135.26 734.09 -136.65 719.16 -139.97 704.23 -144.06 689.3 -147.5 674.37 -149.08 659.44 -148.26 644.51 -145.31 629.58 -141.27 614.65 -137.55 599.72 -135.45 584.79 -135.7 569.86 -138.22 554.93 -142.12 540 -146.05 525.07 -148.62 510.14 -148.95 495.21 -146.91 480.28 -143.22 465.34 -139.17 450.41 -136.17 435.48 -135.28 420.55 -136.79 405.62 -140.19 390.69 -144.29 375.76 -147.65 360.83 -149.1 345.9 -148.14 330.97 -145.1 316.04 -141.04 301.11 -137.38 286.18 -135.4 271.25 -135.79 256.32 -138.41 241.39 -142.36 226.46 -146.24 211.53 -148.71 196.6 -148.89 181.67 -146.74 166.74 -142.99 151.81 -138.96 136.88 -136.06 121.95 -135.3 107.02 -136.94 92.09 -140.41 77.16 -144.51 62.23 -147.79 47.3 -149.11 32.37 -148.02 17.44 -144.88 2.51 -140.81 -12.41 -137.21 -27.34 -135.36 -42.27 -135.88 -57.2 -138.61 -72.13 -142.59 -87.06" fill="url(#uuunion-grad)"></path><path d="M-142.6 -87.07Q-138.62 -72.13 -135.89 -57.2 -135.36 -42.27 -137.22 -27.34 -140.82 -12.41 -144.89 2.51 -148.03 17.44 -149.12 32.37 -147.8 47.3 -144.52 62.23 -140.42 77.16 -136.95 92.09 -135.31 107.02 -136.07 121.95 -138.97 136.88 -143 151.81 -146.75 166.74 -148.9 181.67 -148.72 196.6 -146.25 211.53 -142.37 226.46 -138.42 241.39 -135.8 256.32 -135.41 271.25 -137.39 286.18 -141.05 301.11 -145.11 316.04 -148.15 330.97 -149.11 345.9 -147.66 360.83 -144.3 375.76 -140.2 390.69 -131.36 392.05 -122.51 393.59 -113.67 395.27 -104.83 397.06 -95.99 398.92 -87.14 400.8 -78.3 402.66 -69.46 404.47 -60.62 406.17 -51.77 407.73 -42.93 409.11 -34.09 410.29 -25.24 411.24 -16.4 411.93 0.3 412.46 3.25 412.49 13.78 409.04 24.34 405.17 34.95 400.9 45.61 396.27 56.33 391.34 67.11 386.17 77.96 380.83 88.88 375.4 99.86 369.96 110.91 364.6 122.01 359.4 133.17 354.41 144.37 349.72 155.62 345.37 166.9 341.41 178.2 337.87 189.51 334.75 200.83 332.06 212.14 329.78 223.44 327.87 234.71 326.31 245.96 325.02 257.17 323.94 268.34 323.01 279.46 322.14 290.54 321.25 301.57 320.26 312.54 319.11 323.47 317.71 334.36 316.02 345.2 313.98 356.02 311.55 366.8 308.71 377.58 305.46 388.34 301.79 399.1 297.73 409.88 293.32 420.67 288.59 431.5 283.61 442.38 278.45 453.3 273.17 464.29 267.85 475.34 262.57 486.47 257.4 497.68 252.42 508.98 247.69 520.35 243.27 531.81 239.2 543.36 235.51 554.98 232.22 566.68 229.34 578.43 226.86 590.25 224.75 602.11 222.97 613.99 221.48 625.9 220.22 637.81 219.12 649.71 218.11 661.57 217.11 673.39 216.06 685.15 214.87 696.84 213.48 708.43 211.83 719.92 209.87 731.29 207.56 742.54 204.87 753.64 201.79 764.61 198.31 775.43 194.45 786.11 190.24 796.64 185.72 807.03 180.94 817.28 175.95 827.41 170.82 837.42 165.63 847.34 160.45 857.17 155.34 866.95 150.39 876.67 145.64 886.38 141.17 896.09 137.01 905.83 133.2 915.61 129.77 925.47 126.71 935.42 124.04 945.5 121.73 955.71 119.75 966.08 118.06 976.63 116.61 987.37 115.34 998.31 114.18 1009.46 113.07 1020.83 111.93 1032.41 110.69 1044.21 109.29 1056.22 107.66 1068.43 105.76 1080.82 103.54 1093.39 100.97 1106.1 98.04 1118.94 94.74 1131.89 91.07 1144.91 87.05 1157.97 82.73 1171.04 78.14 1184.1 73.33 1197.11 68.37 1210.03 63.32 1222.83 58.24 1235.49 53.22 1247.98 48.3 1260.26 43.57 1272.31 39.06 1284.12 34.84 1295.67 30.93 1306.94 27.37 1317.92 24.16 1328.61 21.32 1339.02 18.82 1349.14 16.65 1358.99 14.77 1368.57 13.13 1377.92 11.68 1387.05 10.37 1395.99 9.13 1404.77 7.88 1413.43 6.57 1422 5.13 1408.83 -12.41 1401.85 -29.97 1404.35 -47.52 1415.15 -65.08 1429.17 -82.64 1439.81 -100.19 1442.08 -117.75 1434.9 -135.31 1422.45 -137.03 1410 -138.88 1397.55 -140.78 1385.11 -142.65 1372.66 -144.4 1360.21 -145.96 1347.76 -147.26 1335.31 -148.25 1322.86 -148.87 1310.41 -149.12 1297.97 -148.96 1285.52 -148.42 1273.07 -147.51 1260.62 -146.28 1248.17 -144.77 1235.72 -143.06 1223.27 -141.21 1210.83 -139.31 1198.38 -137.44 1185.93 -135.68 1173.48 -134.11 1161.03 -132.79 1148.58 -131.79 1136.14 -131.14 1123.69 -130.88 1111.24 -131.01 1098.79 -131.53 1086.34 -132.42 1073.89 -133.64 1061.44 -135.13 1049 -136.83 1036.55 -138.68 1024.1 -140.58 1011.65 -142.45 999.2 -144.22 986.75 -145.8 974.3 -147.13 961.86 -148.16 949.41 -148.83 936.96 -149.11 924.51 -149 912.06 -148.5 899.61 -147.63 887.16 -146.43 874.72 -144.95 862.27 -143.25 849.82 -141.42 837.37 -139.52 824.92 -137.64 812.47 -135.86 800.03 -134.27 787.58 -132.92 775.13 -131.88 762.68 -131.19 750.23 -130.89 737.78 -130.97 725.33 -131.45 712.89 -132.31 700.44 -133.49 687.99 -134.96 675.54 -136.64 663.09 -138.47 650.64 -140.37 638.19 -142.25 625.75 -144.03 613.3 -145.64 600.85 -147 588.4 -148.06 575.95 -148.77 563.5 -149.1 551.05 -149.03 538.61 -148.57 526.16 -147.74 513.71 -146.57 501.26 -145.12 488.81 -143.44 476.36 -141.62 463.92 -139.72 451.47 -137.84 439.02 -136.05 426.57 -134.43 414.12 -133.05 401.67 -131.98 389.22 -131.25 376.78 -130.9 364.33 -130.95 351.88 -131.38 339.43 -132.2 326.98 -133.35 314.53 -134.79 302.08 -136.45 289.64 -138.27 277.19 -140.16 264.74 -142.05 252.29 -143.85 239.84 -145.48 227.39 -146.87 214.94 -147.96 202.5 -148.71 190.05 -149.08 177.6 -149.06 165.15 -148.64 152.7 -147.85 140.25 -146.71 127.81 -145.29 115.36 -143.63 102.91 -141.82 90.46 -139.93 78.01 -138.04 65.56 -136.24 53.11 -134.59 40.67 -133.19 28.22 -132.08 15.77 -131.31 3.32 -130.92 -9.12 -130.92 -21.57 -131.32 -34.02 -132.09 -46.46 -133.21 -58.91 -134.62 -71.36 -136.26 -83.81 -138.07 -96.26 -139.96 -108.71 -141.85 -121.16 -143.66 -133.6 -145.31 -151.95 -139.72 -154.79 -117.51 -149.42 -102.3 -142.6 -87.07" fill="url(#uuunion-grad2)" filter="url(#uuunion-blur)"></path><path d="M1426.73 326.16Q1435.65 327.64 1444.57 328.94 1453.5 330.04 1462.42 330.91 1471.35 331.53 1480.27 331.9 1489.19 331.99 1498.12 331.81 1507.04 331.37 1515.96 330.66 1524.89 329.72 1533.81 328.55 1542.73 327.2 1551.66 325.67 1560.58 324.02 1569.5 322.28 1582.63 339.8 1587.08 357.32 1580.77 374.84 1566.67 392.36 1551.4 409.89 1542.15 427.41 1543.27 444.93 1554.23 462.45 1569.88 479.97 1582.85 497.49 1587.05 515.01 1580.5 532.53 1566.28 550.05 1551.08 567.57 1542.05 585.09 1543.43 602.61 1554.58 620.14 1570.25 637.66 1583.07 655.18 1587.02 672.7 1580.23 690.22 1565.9 707.74 1550.77 725.26 1541.95 742.78 1543.6 760.3 1554.93 777.82 1570.62 795.34 1583.29 812.86 1586.98 830.39 1579.95 847.91 1565.51 865.43 1550.46 882.95 1538.36 886.02 1526.26 888.83 1514.16 891.26 1502.06 893.21 1489.96 894.59 1477.86 895.35 1465.76 895.46 1453.66 894.9 1441.56 893.7 1429.46 891.92 1417.36 889.62 1405.26 886.92 1393.16 883.91 1381.06 880.74 1368.96 877.54 1356.86 874.45 1344.76 871.59 1332.66 869.09 1320.56 867.05 1308.46 865.58 1296.36 864.71 1284.26 864.51 1272.16 864.96 1260.06 866.06 1247.96 867.76 1235.86 869.98 1223.76 872.62 1211.66 875.59 1199.56 878.74 1187.46 881.95 1175.36 885.07 1163.26 887.97 1151.16 890.54 1139.06 892.65 1126.96 894.22 1114.86 895.18 1102.76 895.49 1090.66 895.14 1078.56 894.14 1066.46 892.54 1054.36 890.4 1042.26 887.81 1030.16 884.89 1018.06 881.76 1005.96 878.55 993.86 875.4 981.76 872.46 969.66 869.83 957.56 867.64 945.46 865.98 933.36 864.92 921.26 864.5 909.16 864.75 897.06 865.65 884.96 867.16 872.86 869.22 860.76 871.75 848.66 874.62 836.56 877.73 824.46 880.94 812.36 884.1 800.26 887.09 788.16 889.77 776.06 892.04 763.96 893.79 751.86 894.95 739.76 895.47 727.66 895.33 715.56 894.53 703.46 893.11 691.36 891.13 679.26 888.67 667.16 885.84 655.06 882.76 642.96 879.56 630.86 876.38 618.76 873.36 606.66 870.62 594.56 868.28 582.46 866.44 570.36 865.18 558.26 864.56 546.16 864.6 534.06 865.29 521.96 866.62 509.86 868.52 497.76 870.91 485.66 873.68 473.56 876.73 461.46 879.92 449.36 883.11 437.26 886.17 425.16 888.96 413.06 891.37 400.96 893.29 388.86 894.65 376.76 895.37 364.66 895.44 352.56 894.85 340.46 893.62 328.36 891.81 316.26 889.49 304.16 886.77 292.07 883.75 279.97 880.58 267.87 877.38 255.77 874.29 243.67 871.45 231.57 868.97 219.47 866.96 207.37 865.52 195.27 864.69 183.17 864.51 171.07 865 158.97 866.14 146.87 867.86 134.77 870.1 122.67 872.77 110.57 875.75 98.47 878.91 86.37 882.11 74.27 885.23 62.17 888.12 50.07 890.66 37.97 892.75 25.87 894.29 6.92 890.32 -1.69 875.37 -3.35 865.31 -4.64 855.24 -5.35 845.18 -5.38 835.12 -3.83 820.02 -2.44 815 11.11 808.37 24.66 801.1 38.12 793.22 51.44 784.82 64.56 775.99 77.48 766.85 90.17 757.54 102.66 748.18 114.96 738.92 127.12 729.89 139.18 721.21 151.2 713 163.23 705.33 175.3 698.26 187.47 691.84 199.74 686.06 212.13 680.9 224.64 676.31 237.25 672.2 249.93 668.49 262.65 665.06 275.36 661.77 288.02 658.5 300.61 655.11 313.09 651.48 325.44 647.49 337.67 643.04 349.77 638.05 361.78 632.48 373.74 626.29 385.69 619.48 397.68 612.08 409.77 604.16 422.01 595.78 434.44 587.04 447.09 578.05 459.98 568.95 473.11 559.85 486.45 550.89 499.96 542.18 513.58 533.84 527.23 525.94 540.85 518.58 554.33 511.78 567.61 505.58 580.6 499.97 593.25 494.91 605.53 490.34 617.41 486.2 628.93 482.39 640.11 478.78 651.03 475.27 661.78 471.73 672.47 468.05 683.21 464.09 694.13 459.78 705.34 455.01 716.95 449.74 729.03 443.91 741.65 437.52 754.81 430.57 768.5 423.09 782.68 415.15 797.24 406.82 807.38 403.76 817.54 400.56 827.73 397.29 837.93 393.99 848.15 390.71 858.39 387.53 868.65 384.47 878.92 381.61 889.21 378.97 899.51 376.6 909.82 374.53 920.14 372.77 930.46 371.35 940.79 370.26 951.13 369.5 961.47 369.06 971.8 368.91 982.14 369.03 992.47 369.38 1002.8 369.91 1013.11 370.57 1023.42 371.32 1033.72 372.1 1044 372.85 1054.26 373.52 1064.51 374.06 1074.73 374.42 1084.93 374.56 1095.11 374.44 1105.26 374.02 1115.39 373.3 1125.48 372.24 1135.54 370.86 1145.57 369.14 1155.56 367.12 1165.52 364.8 1175.44 362.21 1185.32 359.4 1195.16 356.4 1204.95 353.27 1214.71 350.05 1224.42 346.8 1234.08 343.57 1243.7 340.41 1253.28 337.38 1262.8 334.52 1272.29 331.89 1281.72 329.5 1291.11 327.41 1300.45 325.62 1309.75 324.15 1318.99 323.01 1328.2 322.19 1337.36 321.69 1346.47 321.48 1355.54 321.53 1364.57 321.81 1373.56 322.27 1382.51 322.87 1391.42 323.56 1400.3 324.29 1409.14 325 1417.95 325.64 1426.73 326.16" fill="url(#uuunion-grad3)" filter="url(#uuunion-blur2)"></path></svg>